<svg width="33" height="50" viewBox="0 0 33 50" fill="none" xmlns="http://www.w3.org/2000/svg">
<path fill-rule="evenodd" clip-rule="evenodd" d="M16.433 0C7.56384 0 1.15706 6.76564 0.140885 14.0326C-0.492935 18.877 1.03738 23.5991 4.21649 27.1714C7.01399 30.2299 8.5437 34.3163 8.5437 38.5248L8.53205 45.1554C8.53205 47.8346 10.6957 50 13.373 50H19.6127C22.2899 50 24.4536 47.8346 24.4536 45.1554L24.4658 38.5248C24.4658 34.194 25.8642 30.2299 28.5414 27.4282C31.4703 24.3697 33 20.4183 33 16.3324C32.9883 7.26692 25.4696 0 16.433 0ZM22.0272 45.1554C22.0272 46.4279 21.0112 47.4552 19.7318 47.4552H13.4925C12.2138 47.4552 11.1976 46.4398 11.1976 45.1554V42.2194H22.015V45.1554H22.0272ZM26.7607 25.6422C23.581 28.9574 21.9194 33.5451 21.9194 38.5248V39.6746H11.1018V38.5248C11.1018 33.802 9.18933 29.0925 6.00947 25.5203C3.21271 22.4619 2.0652 18.5097 2.56709 14.4237C3.46358 8.3068 9.02168 2.55734 16.4446 2.55734C24.2142 2.55734 30.4541 8.8087 30.4541 16.3324C30.4541 19.7701 29.1753 23.0855 26.7607 25.6422Z" fill="url(#paint0_linear_0_50)"/>
<defs>
<linearGradient id="paint0_linear_0_50" x1="0.584549" y1="1.77136" x2="0.584549" y2="50" gradientUnits="userSpaceOnUse">
<stop stop-color="#FF955D"/>
<stop offset="1" stop-color="#FF4CAB"/>
</linearGradient>
</defs>
</svg>
